<?xml version="1.0" encoding="utf-8"?>
<!-- Generator: Adobe Illustrator 19.0.0, SVG Export Plug-In . SVG Version: 6.00 Build 0)  -->
<svg version="1.1" id="Layer_1" xmlns="http://www.w3.org/2000/svg" xmlns:xlink="http://www.w3.org/1999/xlink" x="0px" y="0px"
	 viewBox="0 0 96 96" style="enable-background:new 0 0 96 96;" xml:space="preserve">
<style type="text/css">
	.st0{fill:#25B7D3;}
	.st1{fill:#FBEC9A;}
	.st2{fill:#FACB1B;}
	.st3{fill:#F0F1F1;}
	.st4{fill:#FFFFFF;}
</style>
<g id="XMLID_1_">
	<circle id="XMLID_3_" class="st0" cx="48" cy="48" r="32.5"/>
	<polygon id="XMLID_4_" class="st1" points="52.6,41.5 49.1,43.7 51,47.3 46.9,47.5 46.7,51.6 43.1,49.7 40.9,53.2 38.7,49.7 
		35.1,51.6 34.9,47.5 30.8,47.3 32.8,43.7 29.3,41.5 32.8,39.3 30.8,35.7 34.9,35.5 35.1,31.4 38.7,33.3 40.9,29.8 43.1,33.3 
		46.7,31.4 46.9,35.5 51,35.7 49.1,39.3 	"/>
	<circle id="XMLID_5_" class="st2" cx="40.9" cy="41.5" r="7.1"/>
	<path id="XMLID_6_" class="st3" d="M66.9,49.8c0-2.9-2.1-5.3-4.8-5.8c-1.3-3.2-4.5-5.4-8.2-5.4c-3.2,0-6,1.7-7.6,4.2
		c-1.1-0.8-2.5-1.3-4-1.3c-3.1,0-5.7,2.1-6.5,4.9c-3.4-0.9-6.8,1.4-6.8,4.5c0,3.1,3.3,5.4,6.7,4.6c0.9,1.5,2.6,2.5,4.5,2.5
		c1.7,0,3.1-0.8,4.1-2C46,59,49.2,61,52.7,61c3.7,0,7-2.2,8.5-5.3C64.4,55.6,66.9,53,66.9,49.8z"/>
	<path id="XMLID_7_" class="st4" d="M54,38.5c-3.2,0-6,1.7-7.6,4.2c-1.1-0.8-2.5-1.3-4-1.3c-3.1,0-5.7,2.1-6.5,4.9
		c-3.4-0.9-6.8,1.4-6.8,4.5c0,3.1,3.3,5.4,6.7,4.6c0.9,1.5,2.6,2.5,4.5,2.5c1.4,0,2.6-0.5,3.6-1.4l0.6-0.6l15.3-15.3
		C58.3,39.4,56.2,38.5,54,38.5z"/>
</g>
</svg>
